# xmcd
# 
# Track frame offsets:
#     150
#     20521
#     36895
#     51443
#     77663
#     103053
#     126169
#     138897
#     161054
#     188404
#     201369
#     230471
#     248644
#     267259
# 
# Disc length: 3913
# 
# Revision: 5
# Processed by: cddbd v1.5.2PL0 Copyright (c) Steve Scherf et al.
# Submitted via: BonkEnc v1.0.8
# 
DISCID=bc0f470e
DTITLE=Stephane Pompougnac - Hotel Costes 6
DYEAR=2003
DGENRE=House
TTITLE0=Slow Train - In The Black Of Night
TTITLE1=Stigmato Inc. - Reality Check
TTITLE2=Emmanuel Santarromana - Metropolitain
TTITLE3=3-11 Porter - Surround Me With Your Love (Mental Overdrive Remix)
TTITLE4=Tosca - Rolf Royce feat. Stephan Graf Hadik Wildner
TTITLE5=Stephane Pompougnac - Morenito feat. Clementine (Bossa Mix)
TTITLE6=Barbara Mendes - Got To Be In Love (Dub Mix)
TTITLE7=Minus 8 - Snowblind
TTITLE8=Dutch Rhythm Combo - Come On
TTITLE9=Fingathing - You Fly Me
TTITLE10=Zimpala - The Breeze Is Black (Moonstarr Remix)
TTITLE11=Spiro Projecto feat. Josefina Sanner - Bluesless
TTITLE12=Grand Palace - Party's On
TTITLE13=Doctor Jazz's Universal Remedy - Un Monde Sans Frime
EXTD=wagram - promo YEAR: 2003
EXTT0=
EXTT1=
EXTT2=
EXTT3=
EXTT4=
EXTT5=
EXTT6=
EXTT7=
EXTT8=
EXTT9=
EXTT10=
EXTT11=
EXTT12=
EXTT13=
PLAYORDER=
